<svg width="89" height="28" viewBox="0 0 89 28" fill="none" xmlns="http://www.w3.org/2000/svg">
<mask id="path-1-outside-1_0_28" maskUnits="userSpaceOnUse" x="46.3809" y="8" width="42" height="13" fill="black">
<rect fill="white" x="46.3809" y="8" width="42" height="13"/>
<path d="M51.8189 20C51.1039 20 50.4525 19.9074 49.8648 19.7221C49.2771 19.527 48.7825 19.2735 48.3809 18.9614L49.0861 17.7912C49.4387 18.0838 49.8354 18.3227 50.2762 18.508C50.717 18.6933 51.2312 18.7859 51.8189 18.7859C52.5241 18.7859 53.0825 18.6396 53.4938 18.3471C53.9052 18.0545 54.1109 17.6596 54.1109 17.1622C54.1109 16.8794 54.0522 16.6308 53.9346 16.4162C53.8171 16.1919 53.5869 15.9774 53.2441 15.7726C52.911 15.5581 52.4164 15.3289 51.7601 15.0851C51.0549 14.8121 50.4917 14.539 50.0705 14.266C49.6493 13.9832 49.3457 13.6662 49.1596 13.3152C48.9833 12.9543 48.8951 12.5301 48.8951 12.0426C48.8951 11.555 49.0273 11.1161 49.2918 10.7261C49.5661 10.3262 49.9628 10.0093 50.4819 9.77527C51.0108 9.53147 51.6475 9.40957 52.3919 9.40957C52.9992 9.40957 53.5428 9.47296 54.0228 9.59973C54.5125 9.71675 54.9876 9.88741 55.4479 10.1117L54.9337 11.2965C54.6007 11.1015 54.2089 10.9406 53.7583 10.8138C53.3175 10.6773 52.8523 10.609 52.3625 10.609C51.7161 10.609 51.2067 10.7358 50.8345 10.9894C50.4623 11.2429 50.2762 11.5696 50.2762 11.9694C50.2762 12.223 50.3301 12.4473 50.4378 12.6423C50.5456 12.8373 50.7561 13.0275 51.0696 13.2128C51.3928 13.398 51.8728 13.6077 52.5094 13.8418C53.2735 14.1246 53.8758 14.422 54.3166 14.734C54.7672 15.0461 55.0855 15.3874 55.2716 15.758C55.4577 16.1188 55.5508 16.5332 55.5508 17.0013C55.5508 17.6352 55.3892 18.1764 55.0659 18.625C54.7525 19.0736 54.3117 19.4149 53.7436 19.6489C53.1853 19.883 52.5437 20 51.8189 20Z"/>
<path d="M60.3899 20C59.7532 20 59.1753 19.8391 58.6562 19.5173C58.1371 19.1955 57.7208 18.742 57.4073 18.1569C57.1037 17.5621 56.9519 16.8648 56.9519 16.0652C56.9519 15.3045 57.1037 14.6219 57.4073 14.0173C57.7208 13.4127 58.1468 12.9348 58.6856 12.5838C59.2341 12.223 59.861 12.0426 60.5662 12.0426C61.007 12.0426 61.4037 12.1206 61.7563 12.2766C62.1187 12.4229 62.4322 12.6082 62.6966 12.8324V12.2181H63.9014V17.9814C63.9014 18.352 63.9896 18.5957 64.1659 18.7128C64.352 18.82 64.5528 18.8737 64.7683 18.8737L64.4891 19.8976C63.5488 19.8976 62.9807 19.5173 62.7848 18.7566C62.5595 19.0687 62.251 19.3564 61.8592 19.6197C61.4771 19.8732 60.9874 20 60.3899 20ZM60.6838 18.8298C61.056 18.8298 61.4086 18.742 61.7416 18.5665C62.0746 18.3812 62.3538 18.152 62.5791 17.879V13.7979C62.3146 13.6126 62.0208 13.4663 61.6975 13.359C61.3841 13.242 61.0511 13.1835 60.6984 13.1835C60.2283 13.1835 59.812 13.3054 59.4496 13.5492C59.097 13.7832 58.8178 14.1148 58.6121 14.5439C58.4064 14.9632 58.3036 15.4557 58.3036 16.0213C58.3036 16.5674 58.4064 17.055 58.6121 17.484C58.8178 17.9034 59.1019 18.2349 59.4643 18.4787C59.8267 18.7128 60.2332 18.8298 60.6838 18.8298Z"/>
<path d="M68.8555 20C68.405 20 67.9985 19.9171 67.6361 19.7513C67.2736 19.5758 66.9847 19.2979 66.7692 18.9176C66.5635 18.5372 66.4607 18.0448 66.4607 17.4402V9H67.783V17.3085C67.783 17.8351 67.8907 18.2252 68.1062 18.4787C68.3315 18.7323 68.64 18.859 69.0318 18.859C69.2179 18.859 69.3992 18.8395 69.5755 18.8005C69.7616 18.7518 69.9183 18.6981 70.0456 18.6396L70.3689 19.7074C70.1925 19.7855 69.9722 19.8537 69.7077 19.9122C69.453 19.9707 69.169 20 68.8555 20Z"/>
<path d="M74.6158 20C73.891 20 73.2396 19.8342 72.6617 19.5027C72.0838 19.1613 71.6283 18.6933 71.2953 18.0984C70.972 17.4938 70.8104 16.8014 70.8104 16.0213C70.8104 15.2021 70.9769 14.4951 71.31 13.9003C71.643 13.3054 72.0985 12.8471 72.6764 12.5253C73.2543 12.2035 73.9008 12.0426 74.6158 12.0426C75.3308 12.0426 75.9724 12.2035 76.5405 12.5253C77.1184 12.8471 77.5739 13.3054 77.9069 13.9003C78.2497 14.4854 78.4211 15.1826 78.4211 15.992C78.4211 16.8014 78.2546 17.5084 77.9216 18.113C77.5886 18.7079 77.1331 19.1711 76.5552 19.5027C75.9871 19.8342 75.3406 20 74.6158 20ZM74.6158 18.8298C75.3896 18.8298 75.992 18.5714 76.423 18.0545C76.8539 17.5279 77.0694 16.8502 77.0694 16.0213C77.0694 15.5142 76.9617 15.051 76.7462 14.6316C76.5307 14.2026 76.2369 13.8613 75.8646 13.6077C75.5022 13.3444 75.0859 13.2128 74.6158 13.2128C73.842 13.2128 73.2396 13.4663 72.8086 13.9734C72.3776 14.4805 72.1621 15.1534 72.1621 15.992C72.1621 16.4991 72.2699 16.9721 72.4854 17.4109C72.7009 17.84 72.9898 18.1862 73.3522 18.4495C73.7244 18.703 74.1456 18.8298 74.6158 18.8298Z"/>
<path d="M80.9602 19.8245V12.2181H82.2385V13.4907C82.5128 13.0811 82.8605 12.7398 83.2817 12.4668C83.7126 12.184 84.222 12.0426 84.8097 12.0426C85.6716 12.0426 86.3132 12.301 86.7344 12.8178C87.1654 13.3347 87.3809 14.0173 87.3809 14.8657V19.8245H86.0585V15.012C86.0585 14.4659 85.9263 14.027 85.6618 13.6955C85.4072 13.3639 85.0497 13.1981 84.5893 13.1981C84.1387 13.1981 83.7126 13.359 83.311 13.6809C82.9095 13.9929 82.5666 14.3635 82.2826 14.7926V19.8245H80.9602Z"/>
</mask>
<path d="M51.8189 20C51.1039 20 50.4525 19.9074 49.8648 19.7221C49.2771 19.527 48.7825 19.2735 48.3809 18.9614L49.0861 17.7912C49.4387 18.0838 49.8354 18.3227 50.2762 18.508C50.717 18.6933 51.2312 18.7859 51.8189 18.7859C52.5241 18.7859 53.0825 18.6396 53.4938 18.3471C53.9052 18.0545 54.1109 17.6596 54.1109 17.1622C54.1109 16.8794 54.0522 16.6308 53.9346 16.4162C53.8171 16.1919 53.5869 15.9774 53.2441 15.7726C52.911 15.5581 52.4164 15.3289 51.7601 15.0851C51.0549 14.8121 50.4917 14.539 50.0705 14.266C49.6493 13.9832 49.3457 13.6662 49.1596 13.3152C48.9833 12.9543 48.8951 12.5301 48.8951 12.0426C48.8951 11.555 49.0273 11.1161 49.2918 10.7261C49.5661 10.3262 49.9628 10.0093 50.4819 9.77527C51.0108 9.53147 51.6475 9.40957 52.3919 9.40957C52.9992 9.40957 53.5428 9.47296 54.0228 9.59973C54.5125 9.71675 54.9876 9.88741 55.4479 10.1117L54.9337 11.2965C54.6007 11.1015 54.2089 10.9406 53.7583 10.8138C53.3175 10.6773 52.8523 10.609 52.3625 10.609C51.7161 10.609 51.2067 10.7358 50.8345 10.9894C50.4623 11.2429 50.2762 11.5696 50.2762 11.9694C50.2762 12.223 50.3301 12.4473 50.4378 12.6423C50.5456 12.8373 50.7561 13.0275 51.0696 13.2128C51.3928 13.398 51.8728 13.6077 52.5094 13.8418C53.2735 14.1246 53.8758 14.422 54.3166 14.734C54.7672 15.0461 55.0855 15.3874 55.2716 15.758C55.4577 16.1188 55.5508 16.5332 55.5508 17.0013C55.5508 17.6352 55.3892 18.1764 55.0659 18.625C54.7525 19.0736 54.3117 19.4149 53.7436 19.6489C53.1853 19.883 52.5437 20 51.8189 20Z" fill="white"/>
<path d="M60.3899 20C59.7532 20 59.1753 19.8391 58.6562 19.5173C58.1371 19.1955 57.7208 18.742 57.4073 18.1569C57.1037 17.5621 56.9519 16.8648 56.9519 16.0652C56.9519 15.3045 57.1037 14.6219 57.4073 14.0173C57.7208 13.4127 58.1468 12.9348 58.6856 12.5838C59.2341 12.223 59.861 12.0426 60.5662 12.0426C61.007 12.0426 61.4037 12.1206 61.7563 12.2766C62.1187 12.4229 62.4322 12.6082 62.6966 12.8324V12.2181H63.9014V17.9814C63.9014 18.352 63.9896 18.5957 64.1659 18.7128C64.352 18.82 64.5528 18.8737 64.7683 18.8737L64.4891 19.8976C63.5488 19.8976 62.9807 19.5173 62.7848 18.7566C62.5595 19.0687 62.251 19.3564 61.8592 19.6197C61.4771 19.8732 60.9874 20 60.3899 20ZM60.6838 18.8298C61.056 18.8298 61.4086 18.742 61.7416 18.5665C62.0746 18.3812 62.3538 18.152 62.5791 17.879V13.7979C62.3146 13.6126 62.0208 13.4663 61.6975 13.359C61.3841 13.242 61.0511 13.1835 60.6984 13.1835C60.2283 13.1835 59.812 13.3054 59.4496 13.5492C59.097 13.7832 58.8178 14.1148 58.6121 14.5439C58.4064 14.9632 58.3036 15.4557 58.3036 16.0213C58.3036 16.5674 58.4064 17.055 58.6121 17.484C58.8178 17.9034 59.1019 18.2349 59.4643 18.4787C59.8267 18.7128 60.2332 18.8298 60.6838 18.8298Z" fill="white"/>
<path d="M68.8555 20C68.405 20 67.9985 19.9171 67.6361 19.7513C67.2736 19.5758 66.9847 19.2979 66.7692 18.9176C66.5635 18.5372 66.4607 18.0448 66.4607 17.4402V9H67.783V17.3085C67.783 17.8351 67.8907 18.2252 68.1062 18.4787C68.3315 18.7323 68.64 18.859 69.0318 18.859C69.2179 18.859 69.3992 18.8395 69.5755 18.8005C69.7616 18.7518 69.9183 18.6981 70.0456 18.6396L70.3689 19.7074C70.1925 19.7855 69.9722 19.8537 69.7077 19.9122C69.453 19.9707 69.169 20 68.8555 20Z" fill="white"/>
<path d="M74.6158 20C73.891 20 73.2396 19.8342 72.6617 19.5027C72.0838 19.1613 71.6283 18.6933 71.2953 18.0984C70.972 17.4938 70.8104 16.8014 70.8104 16.0213C70.8104 15.2021 70.9769 14.4951 71.31 13.9003C71.643 13.3054 72.0985 12.8471 72.6764 12.5253C73.2543 12.2035 73.9008 12.0426 74.6158 12.0426C75.3308 12.0426 75.9724 12.2035 76.5405 12.5253C77.1184 12.8471 77.5739 13.3054 77.9069 13.9003C78.2497 14.4854 78.4211 15.1826 78.4211 15.992C78.4211 16.8014 78.2546 17.5084 77.9216 18.113C77.5886 18.7079 77.1331 19.1711 76.5552 19.5027C75.9871 19.8342 75.3406 20 74.6158 20ZM74.6158 18.8298C75.3896 18.8298 75.992 18.5714 76.423 18.0545C76.8539 17.5279 77.0694 16.8502 77.0694 16.0213C77.0694 15.5142 76.9617 15.051 76.7462 14.6316C76.5307 14.2026 76.2369 13.8613 75.8646 13.6077C75.5022 13.3444 75.0859 13.2128 74.6158 13.2128C73.842 13.2128 73.2396 13.4663 72.8086 13.9734C72.3776 14.4805 72.1621 15.1534 72.1621 15.992C72.1621 16.4991 72.2699 16.9721 72.4854 17.4109C72.7009 17.84 72.9898 18.1862 73.3522 18.4495C73.7244 18.703 74.1456 18.8298 74.6158 18.8298Z" fill="white"/>
<path d="M80.9602 19.8245V12.2181H82.2385V13.4907C82.5128 13.0811 82.8605 12.7398 83.2817 12.4668C83.7126 12.184 84.222 12.0426 84.8097 12.0426C85.6716 12.0426 86.3132 12.301 86.7344 12.8178C87.1654 13.3347 87.3809 14.0173 87.3809 14.8657V19.8245H86.0585V15.012C86.0585 14.4659 85.9263 14.027 85.6618 13.6955C85.4072 13.3639 85.0497 13.1981 84.5893 13.1981C84.1387 13.1981 83.7126 13.359 83.311 13.6809C82.9095 13.9929 82.5666 14.3635 82.2826 14.7926V19.8245H80.9602Z" fill="white"/>
<path d="M51.8189 20C51.1039 20 50.4525 19.9074 49.8648 19.7221C49.2771 19.527 48.7825 19.2735 48.3809 18.9614L49.0861 17.7912C49.4387 18.0838 49.8354 18.3227 50.2762 18.508C50.717 18.6933 51.2312 18.7859 51.8189 18.7859C52.5241 18.7859 53.0825 18.6396 53.4938 18.3471C53.9052 18.0545 54.1109 17.6596 54.1109 17.1622C54.1109 16.8794 54.0522 16.6308 53.9346 16.4162C53.8171 16.1919 53.5869 15.9774 53.2441 15.7726C52.911 15.5581 52.4164 15.3289 51.7601 15.0851C51.0549 14.8121 50.4917 14.539 50.0705 14.266C49.6493 13.9832 49.3457 13.6662 49.1596 13.3152C48.9833 12.9543 48.8951 12.5301 48.8951 12.0426C48.8951 11.555 49.0273 11.1161 49.2918 10.7261C49.5661 10.3262 49.9628 10.0093 50.4819 9.77527C51.0108 9.53147 51.6475 9.40957 52.3919 9.40957C52.9992 9.40957 53.5428 9.47296 54.0228 9.59973C54.5125 9.71675 54.9876 9.88741 55.4479 10.1117L54.9337 11.2965C54.6007 11.1015 54.2089 10.9406 53.7583 10.8138C53.3175 10.6773 52.8523 10.609 52.3625 10.609C51.7161 10.609 51.2067 10.7358 50.8345 10.9894C50.4623 11.2429 50.2762 11.5696 50.2762 11.9694C50.2762 12.223 50.3301 12.4473 50.4378 12.6423C50.5456 12.8373 50.7561 13.0275 51.0696 13.2128C51.3928 13.398 51.8728 13.6077 52.5094 13.8418C53.2735 14.1246 53.8758 14.422 54.3166 14.734C54.7672 15.0461 55.0855 15.3874 55.2716 15.758C55.4577 16.1188 55.5508 16.5332 55.5508 17.0013C55.5508 17.6352 55.3892 18.1764 55.0659 18.625C54.7525 19.0736 54.3117 19.4149 53.7436 19.6489C53.1853 19.883 52.5437 20 51.8189 20Z" stroke="#BDBDBD" stroke-width="2" mask="url(#path-1-outside-1_0_28)"/>
<path d="M60.3899 20C59.7532 20 59.1753 19.8391 58.6562 19.5173C58.1371 19.1955 57.7208 18.742 57.4073 18.1569C57.1037 17.5621 56.9519 16.8648 56.9519 16.0652C56.9519 15.3045 57.1037 14.6219 57.4073 14.0173C57.7208 13.4127 58.1468 12.9348 58.6856 12.5838C59.2341 12.223 59.861 12.0426 60.5662 12.0426C61.007 12.0426 61.4037 12.1206 61.7563 12.2766C62.1187 12.4229 62.4322 12.6082 62.6966 12.8324V12.2181H63.9014V17.9814C63.9014 18.352 63.9896 18.5957 64.1659 18.7128C64.352 18.82 64.5528 18.8737 64.7683 18.8737L64.4891 19.8976C63.5488 19.8976 62.9807 19.5173 62.7848 18.7566C62.5595 19.0687 62.251 19.3564 61.8592 19.6197C61.4771 19.8732 60.9874 20 60.3899 20ZM60.6838 18.8298C61.056 18.8298 61.4086 18.742 61.7416 18.5665C62.0746 18.3812 62.3538 18.152 62.5791 17.879V13.7979C62.3146 13.6126 62.0208 13.4663 61.6975 13.359C61.3841 13.242 61.0511 13.1835 60.6984 13.1835C60.2283 13.1835 59.812 13.3054 59.4496 13.5492C59.097 13.7832 58.8178 14.1148 58.6121 14.5439C58.4064 14.9632 58.3036 15.4557 58.3036 16.0213C58.3036 16.5674 58.4064 17.055 58.6121 17.484C58.8178 17.9034 59.1019 18.2349 59.4643 18.4787C59.8267 18.7128 60.2332 18.8298 60.6838 18.8298Z" stroke="#BDBDBD" stroke-width="2" mask="url(#path-1-outside-1_0_28)"/>
<path d="M68.8555 20C68.405 20 67.9985 19.9171 67.6361 19.7513C67.2736 19.5758 66.9847 19.2979 66.7692 18.9176C66.5635 18.5372 66.4607 18.0448 66.4607 17.4402V9H67.783V17.3085C67.783 17.8351 67.8907 18.2252 68.1062 18.4787C68.3315 18.7323 68.64 18.859 69.0318 18.859C69.2179 18.859 69.3992 18.8395 69.5755 18.8005C69.7616 18.7518 69.9183 18.6981 70.0456 18.6396L70.3689 19.7074C70.1925 19.7855 69.9722 19.8537 69.7077 19.9122C69.453 19.9707 69.169 20 68.8555 20Z" stroke="#BDBDBD" stroke-width="2" mask="url(#path-1-outside-1_0_28)"/>
<path d="M74.6158 20C73.891 20 73.2396 19.8342 72.6617 19.5027C72.0838 19.1613 71.6283 18.6933 71.2953 18.0984C70.972 17.4938 70.8104 16.8014 70.8104 16.0213C70.8104 15.2021 70.9769 14.4951 71.31 13.9003C71.643 13.3054 72.0985 12.8471 72.6764 12.5253C73.2543 12.2035 73.9008 12.0426 74.6158 12.0426C75.3308 12.0426 75.9724 12.2035 76.5405 12.5253C77.1184 12.8471 77.5739 13.3054 77.9069 13.9003C78.2497 14.4854 78.4211 15.1826 78.4211 15.992C78.4211 16.8014 78.2546 17.5084 77.9216 18.113C77.5886 18.7079 77.1331 19.1711 76.5552 19.5027C75.9871 19.8342 75.3406 20 74.6158 20ZM74.6158 18.8298C75.3896 18.8298 75.992 18.5714 76.423 18.0545C76.8539 17.5279 77.0694 16.8502 77.0694 16.0213C77.0694 15.5142 76.9617 15.051 76.7462 14.6316C76.5307 14.2026 76.2369 13.8613 75.8646 13.6077C75.5022 13.3444 75.0859 13.2128 74.6158 13.2128C73.842 13.2128 73.2396 13.4663 72.8086 13.9734C72.3776 14.4805 72.1621 15.1534 72.1621 15.992C72.1621 16.4991 72.2699 16.9721 72.4854 17.4109C72.7009 17.84 72.9898 18.1862 73.3522 18.4495C73.7244 18.703 74.1456 18.8298 74.6158 18.8298Z" stroke="#BDBDBD" stroke-width="2" mask="url(#path-1-outside-1_0_28)"/>
<path d="M80.9602 19.8245V12.2181H82.2385V13.4907C82.5128 13.0811 82.8605 12.7398 83.2817 12.4668C83.7126 12.184 84.222 12.0426 84.8097 12.0426C85.6716 12.0426 86.3132 12.301 86.7344 12.8178C87.1654 13.3347 87.3809 14.0173 87.3809 14.8657V19.8245H86.0585V15.012C86.0585 14.4659 85.9263 14.027 85.6618 13.6955C85.4072 13.3639 85.0497 13.1981 84.5893 13.1981C84.1387 13.1981 83.7126 13.359 83.311 13.6809C82.9095 13.9929 82.5666 14.3635 82.2826 14.7926V19.8245H80.9602Z" stroke="#BDBDBD" stroke-width="2" mask="url(#path-1-outside-1_0_28)"/>
<g clip-path="url(#clip0_0_28)">
<path d="M39.7559 0.874998C39.7559 1.35825 40.1476 1.75 40.6309 1.75H41.5059C41.9891 1.75 42.3809 1.35825 42.3809 0.874998C42.3809 0.391751 41.9891 0 41.5059 0H40.6309C40.1476 0 39.7559 0.391751 39.7559 0.874998Z" fill="white"/>
<path d="M14.3809 28H18.6315L17.394 26.7625C17.0658 26.4344 16.6207 26.25 16.1566 26.25H14.3809C7.61536 26.25 2.13086 20.7655 2.13086 14C2.13086 7.2345 7.61536 1.75001 14.3809 1.75H28.3809C35.1464 1.75 40.6309 7.2345 40.6309 14C40.6309 20.7655 35.1464 26.25 28.3809 26.25H23.1437C22.4475 26.25 21.7799 25.9734 21.2875 25.4812L19.8378 24.0314C19.0174 23.211 17.9045 22.75 16.7442 22.75H14.3809C9.54834 22.75 5.63086 18.8325 5.63086 14C5.63086 9.16748 9.54834 5.25 14.3809 5.25H28.3809C33.2134 5.25 37.1309 9.16748 37.1309 14C37.1309 18.8325 33.2134 22.75 28.3809 22.75H25.0181C24.3219 22.75 23.6542 22.4734 23.1619 21.9812L21.7122 20.5314C20.8917 19.711 19.7789 19.25 18.6186 19.25H14.3809C11.4814 19.25 9.13086 16.8995 9.13086 14C9.13086 11.1005 11.4814 8.75 14.3809 8.75H28.3809C31.2803 8.75 33.6309 11.1005 33.6309 14C33.6309 16.8641 31.3373 19.1926 28.4867 19.249L28.4861 19.25H27.2056C26.5094 19.25 25.8417 18.9734 25.3494 18.4812L23.8997 17.0314C23.2265 16.3582 22.3564 15.927 21.4248 15.794L21.3809 15.75H14.3809C13.4144 15.75 12.6309 14.9665 12.6309 14C12.6309 13.0335 13.4144 12.25 14.3809 12.25H28.3809C29.3473 12.25 30.1309 13.0335 30.1309 14C30.1309 14.9665 29.3473 15.75 28.3809 15.75H24.8809L26.1183 16.9875C26.4465 17.3156 26.8916 17.5 27.3557 17.5H28.3809C30.3138 17.5 31.8809 15.933 31.8809 14C31.8809 12.067 30.3138 10.5 28.3809 10.5H14.3809C12.4479 10.5 10.8809 12.067 10.8809 14C10.8809 15.933 12.4479 17.5 14.3809 17.5H20.8061C21.5023 17.5 22.17 17.7766 22.6623 18.2688L24.112 19.7186C24.9325 20.539 26.0453 21 27.2056 21H28.8184V20.9866C32.4805 20.7607 35.3809 17.719 35.3809 14C35.3809 10.134 32.2468 7 28.3809 7H14.3809C10.5149 7 7.38086 10.134 7.38086 14C7.38086 17.866 10.5149 21 14.3809 21H18.6186C19.3148 21 19.9825 21.2766 20.4748 21.7688L21.9245 23.2186C22.745 24.039 23.8578 24.5 25.0181 24.5H28.3809C34.1799 24.5 38.8809 19.799 38.8809 14C38.8809 8.20099 34.1799 3.5 28.3809 3.5H14.3809C8.58185 3.5 3.88086 8.20099 3.88086 14C3.88086 19.799 8.58185 24.5 14.3809 24.5H16.7442C17.4404 24.5 18.1081 24.7766 18.6004 25.2688L20.0502 26.7186C20.8706 27.539 21.9834 28 23.1437 28H28.3809C36.1129 28 42.3809 21.732 42.3809 14C42.3809 6.26801 36.1129 -6.75951e-07 28.3809 0L14.3809 2.89285e-06C6.64887 3.5688e-06 0.380859 6.26802 0.380859 14C0.38086 21.732 6.64888 28 14.3809 28Z" fill="white"/>
</g>
<defs>
<clipPath id="clip0_0_28">
<rect width="42" height="28" fill="white" transform="translate(0.380859)"/>
</clipPath>
</defs>
</svg>
